<svg width="512" height="512" viewBox="0 0 512 512" fill="none" xmlns="http://www.w3.org/2000/svg">
  <defs>
    <linearGradient id="iconGrad" x1="0" y1="0" x2="512" y2="512" gradientUnits="userSpaceOnUse">
      <stop offset="0" stop-color="#D4F45F"/>
      <stop offset="1" stop-color="#0F5F64"/>
    </linearGradient>
    <filter id="softGlow" x="-20%" y="-20%" width="140%" height="140%">
      <feGaussianBlur stdDeviation="8" result="blur"/>
      <feComposite in="SourceGraphic" in2="blur" operator="over"/>
    </filter>
  </defs>

  <!-- Icon-Based Logo: "The Spark Circuit" -->
  <!-- A single, continuous geometric glyph that forms an abstract 'R' but looks like a tech circuit/spark content -->
  
  <g filter="url(#softGlow)">
      <!-- Main Shape -->
      <path fill-rule="evenodd" clip-rule="evenodd" 
      d="M140 64C117.909 64 100 81.9086 100 104V408C100 430.091 117.909 448 140 448H180C202.091 448 220 430.091 220 408V280H268.28L348.68 436.56C356.54 451.86 372.46 461.5 389.65 461.5H432.22C456.88 461.5 470.97 433.43 455.93 414.16L370.4 304.57C367.8 301.23 369.8 296.34 374.02 295.96C409.52 292.74 436 261.94 436 224C436 153.298 378.703 96 308 96H140V64ZM180 200H300C313.255 200 324 189.255 324 176C324 162.745 313.255 152 300 152H180V200Z" 
      fill="url(#iconGrad)"/>
  </g>
</svg>
