<svg width="150" height="150" viewBox="0 0 150 150" fill="none" xmlns="http://www.w3.org/2000/svg">
  <rect width="150" height="150" fill="white" Rx="10"/>
  <path d="M25 25H55V55H25V25ZM30 30V50H50V30H30ZM95 25H125V55H95V25ZM100 30V50H120V30H100ZM25 95H55V125H25V95ZM30 100V120H50V100H30ZM65 25H85V45H65V25ZM65 65H85V85H65V65ZM25 65H45V85H25V65ZM95 65H125V85H95V65ZM65 95H85V115H65V95ZM95 95H115V115H95V95ZM115 105H125V125H115V105ZM85 115H105V125H85V115Z" fill="#0F172A"/>
  <rect x="35" y="35" width="10" height="10" fill="#0F172A"/>
  <rect x="105" y="35" width="10" height="10" fill="#0F172A"/>
  <rect x="35" y="105" width="10" height="10" fill="#0F172A"/>
</svg>
